<?xml version="1.0" standalone="no"?><svg xmlns="http://www.w3.org/2000/svg" viewBox="0 0 1440 320"><path fill="#f0ead6" fill-opacity="1" d="M0,192L17.1,181.3C34.3,171,69,149,103,165.3C137.1,181,171,235,206,240C240,245,274,203,309,197.3C342.9,192,377,224,411,240C445.7,256,480,256,514,245.3C548.6,235,583,213,617,218.7C651.4,224,686,256,720,240C754.3,224,789,160,823,160C857.1,160,891,224,926,234.7C960,245,994,203,1029,197.3C1062.9,192,1097,224,1131,213.3C1165.7,203,1200,149,1234,154.7C1268.6,160,1303,224,1337,240C1371.4,256,1406,224,1423,208L1440,192L1440,0L1422.9,0C1405.7,0,1371,0,1337,0C1302.9,0,1269,0,1234,0C1200,0,1166,0,1131,0C1097.1,0,1063,0,1029,0C994.3,0,960,0,926,0C891.4,0,857,0,823,0C788.6,0,754,0,720,0C685.7,0,651,0,617,0C582.9,0,549,0,514,0C480,0,446,0,411,0C377.1,0,343,0,309,0C274.3,0,240,0,206,0C171.4,0,137,0,103,0C68.6,0,34,0,17,0L0,0Z"></path></svg>